<svg xmlns="http://www.w3.org/2000/svg" width="980" height="560" viewBox="0 0 980 560">
  <rect width="980" height="560" fill="#101820"/>
  <rect x="28" y="28" width="630" height="462" fill="#0f1720" stroke="#1f2a36" stroke-width="2"/>
  <rect x="682" y="28" width="270" height="462" fill="#18212c"/>
  <text x="704" y="70" fill="#f8f8f2" font-family="Segoe UI, Arial" font-size="24" font-weight="700">Passe automático</text>
  <text x="704" y="112" fill="#ffcc66" font-family="Segoe UI, Arial" font-size="16">Melhor escolha gulosa</text>
  <text x="704" y="144" fill="#ffcc66" font-family="Segoe UI, Arial" font-size="16">Cereja (C)</text>
  <text x="704" y="176" fill="#ffcc66" font-family="Segoe UI, Arial" font-size="16">valor=80 | custo=15</text>
  <text x="704" y="208" fill="#ffcc66" font-family="Segoe UI, Arial" font-size="16">valor/custo=5.33</text>
  <text x="704" y="270" fill="#f8f8f2" font-family="Segoe UI, Arial" font-size="16">A rota escolhida aparece</text>
  <text x="704" y="296" fill="#f8f8f2" font-family="Segoe UI, Arial" font-size="16">em pontos amarelos.</text>
  <g transform="translate(28 28)">
    <rect x="0" y="0" width="630" height="462" fill="#0f1720"/>
    <g fill="#214f93">
      <rect x="0" y="0" width="630" height="42"/><rect x="0" y="420" width="630" height="42"/>
      <rect x="0" y="0" width="42" height="462"/><rect x="588" y="0" width="42" height="462"/>
      <rect x="168" y="42" width="42" height="42"/><rect x="84" y="84" width="42" height="42"/>
      <rect x="168" y="84" width="42" height="42"/><rect x="294" y="84" width="126" height="42"/>
      <rect x="462" y="84" width="126" height="42"/><rect x="84" y="126" width="42" height="42"/>
      <rect x="252" y="126" width="42" height="42"/><rect x="420" y="126" width="42" height="42"/>
      <rect x="84" y="168" width="126" height="42"/><rect x="252" y="168" width="42" height="42"/>
      <rect x="336" y="168" width="42" height="42"/><rect x="420" y="168" width="42" height="42"/>
      <rect x="504" y="168" width="42" height="42"/>
    </g>
    <g fill="#f2b84b">
      <circle cx="63" cy="63" r="7"/><circle cx="63" cy="105" r="7"/><circle cx="63" cy="147" r="7"/>
      <circle cx="63" cy="189" r="7"/><circle cx="105" cy="231" r="7"/><circle cx="147" cy="231" r="7"/>
      <circle cx="189" cy="231" r="7"/><circle cx="231" cy="231" r="7"/><circle cx="231" cy="273" r="7"/>
      <circle cx="231" cy="315" r="7"/><circle cx="273" cy="315" r="7"/><circle cx="315" cy="315" r="7"/>
      <circle cx="315" cy="357" r="7"/><circle cx="315" cy="399" r="7"/>
    </g>
    <circle cx="63" cy="63" r="16" fill="#ffd43b"/>
    <polygon points="63,63 82,54 82,72" fill="#0f1720"/>
    <circle cx="273" cy="399" r="14" fill="#bd7cff"/>
    <text x="268" y="405" fill="#101820" font-family="Consolas" font-size="16" font-weight="700">C</text>
  </g>
</svg>
